<?xml version="1.0" encoding="UTF-8" standalone="no"?>
<svg
   version="1.1"
   id="Capa_1"
   x="0px"
   y="0px"
   viewBox="0 0 256 256"
   xml:space="preserve"
   width="256"
   height="256"
   sodipodi:docname="logo.svg"
   inkscape:version="1.2.2 (b0a8486541, 2022-12-01)"
   xmlns:inkscape="http://www.inkscape.org/namespaces/inkscape"
   xmlns:sodipodi="http://sodipodi.sourceforge.net/DTD/sodipodi-0.dtd"
   xmlns="http://www.w3.org/2000/svg"
   xmlns:svg="http://www.w3.org/2000/svg"><defs
   id="defs43" /><sodipodi:namedview
   id="namedview41"
   pagecolor="#ffffff"
   bordercolor="#000000"
   borderopacity="0.25"
   inkscape:showpageshadow="2"
   inkscape:pageopacity="0.0"
   inkscape:pagecheckerboard="0"
   inkscape:deskcolor="#d1d1d1"
   showgrid="false"
   inkscape:zoom="2.0058594"
   inkscape:cx="245.03213"
   inkscape:cy="256.49854"
   inkscape:window-width="2560"
   inkscape:window-height="1371"
   inkscape:window-x="0"
   inkscape:window-y="0"
   inkscape:window-maximized="1"
   inkscape:current-layer="Capa_1" />
<g
   id="g38"
   transform="matrix(0.50000013,0,0,0.50000013,2.8332789e-4,-4.469004)">
	<path
   style="fill:#feb237"
   d="m 127.03,85.156 c -6.456,0 -12.189,-4.131 -14.23,-10.257 L 106.386,55.656 C 102.983,45.447 93.43,38.562 82.669,38.562 H 36.605 c -8.284,0 -15,6.716 -15,15 v 124.781 h 468.791 v -68.188 c 0,-13.807 -11.193,-25 -25,-25 H 127.03 Z"
   id="path2" />
	<path
   style="fill:#f6ab31"
   d="m 490.395,134.773 c -3.289,-1.595 -6.983,-2.492 -10.896,-2.492 H 32.501 c -3.913,0 -7.607,0.896 -10.896,2.492 v 43.571 h 468.791 v -43.571 z"
   id="path4" />
	<polygon
   style="fill:#ffffff"
   points="442.375,147.281 256,162.812 69.625,147.281 69.625,116.219 442.375,116.219 "
   id="polygon6" />
	<polygon
   style="fill:#f2fbff"
   points="69.625,132.281 69.625,147.281 256,162.812 442.375,147.281 442.375,132.281 "
   id="polygon8" />
	<path
   style="fill:#ffc344"
   d="M 466.349,473.438 H 45.651 c -13.345,0 -24.337,-10.481 -24.972,-23.811 L 7.529,173.47 C 6.85,159.212 18.227,147.281 32.501,147.281 H 479.5 c 14.274,0 25.651,11.931 24.972,26.189 l -13.15,276.156 c -0.636,13.33 -11.628,23.812 -24.973,23.812 z"
   id="path10" />
	<path
   style="fill:#feb237"
   d="m 240.469,348.397 c -1.919,0 -3.839,-0.732 -5.304,-2.197 -2.929,-2.929 -2.928,-7.678 0.001,-10.606 l 13.338,-13.336 -0.004,-20.193 c -0.001,-4.142 3.356,-7.5 7.499,-7.501 0,0 0.001,0 0.001,0 4.142,0 7.499,3.357 7.5,7.499 l 0.005,23.301 c 0,1.99 -0.79,3.898 -2.197,5.305 l -15.536,15.533 c -1.465,1.463 -3.384,2.195 -5.303,2.195 z"
   id="path12" />
	<path
   style="fill:#feb237"
   d="m 334.623,244.413 c 2.088,1.912 2.128,5.195 0.126,7.198 l -25.918,25.917 c -1.844,1.844 -4.817,1.987 -6.778,0.268 -12.3,-10.786 -28.414,-17.322 -46.049,-17.322 -19.3,0 -36.78,7.82 -49.42,20.47 -7.614,7.605 -13.48,16.958 -16.939,27.404 -0.904,2.731 0.68,5.663 3.459,6.408 l 6.642,1.78 c 3.98,1.067 5.034,6.219 1.793,8.763 l -15.104,11.856 -32.867,25.804 c -2.622,2.058 -6.485,1.024 -7.727,-2.069 l -4.886,-12.164 -17.835,-44.438 c -1.535,-3.824 1.955,-7.759 5.935,-6.692 l 9.321,2.499 c 2.624,0.704 5.306,-0.825 6.09,-3.426 5.613,-18.618 15.768,-35.272 29.169,-48.673 21.08,-21.08 50.2,-34.12 82.37,-34.12 30.297,-0.002 57.897,11.571 78.618,30.537 z"
   id="path14" />
	<path
   style="fill:#feb237"
   d="m 177.387,416.314 c -2.088,-1.912 -2.128,-5.195 -0.126,-7.198 l 29.324,-29.333 h 0.01 c 12.65,12.65 30.12,20.47 49.41,20.47 19.3,0 36.78,-7.82 49.42,-20.47 7.614,-7.605 13.48,-16.958 16.939,-27.404 0.904,-2.731 -0.68,-5.663 -3.459,-6.408 l -6.642,-1.78 c -3.98,-1.067 -5.034,-6.219 -1.793,-8.763 l 15.104,-11.856 32.867,-25.804 c 2.622,-2.058 6.485,-1.024 7.727,2.069 l 4.886,12.164 17.835,44.438 c 1.535,3.824 -1.955,7.759 -5.935,6.692 l -9.321,-2.499 c -2.624,-0.704 -5.306,0.825 -6.09,3.426 -5.613,18.618 -15.768,35.272 -29.169,48.673 -21.08,21.08 -50.2,34.12 -82.37,34.12 -30.296,0.003 -57.896,-11.571 -78.617,-30.537 z"
   id="path16" />
	<path
   style="fill:#feb237"
   d="m 479.499,147.281 h -15.498 c 0.404,1.99 0.571,4.064 0.47,6.189 l -11.557,242.692 c -1.527,32.063 -27.967,57.275 -60.067,57.275 H 21.153 c 2.327,11.463 12.454,20 24.498,20 h 420.698 c 13.345,0 24.337,-10.481 24.972,-23.811 l 13.15,-276.156 c 0.679,-14.257 -10.698,-26.189 -24.972,-26.189 z"
   id="path18" />
	<path
   style="fill:#80d261"
   d="m 338.365,227.994 -32.94,32.95 h -0.01 c -12.65,-12.65 -30.12,-20.47 -49.41,-20.47 -19.3,0 -36.78,7.82 -49.42,20.47 -8.83,8.82 -15.31,19.99 -18.41,32.49 l 21.23,5.69 -22.97,18.03 -38.11,29.92 -7.37,-18.35 -21.56,-53.72 23.76,6.37 c 5.25,-20.52 15.96,-38.86 30.48,-53.38 21.08,-21.08 50.2,-34.12 82.37,-34.12 32.16,0 61.28,13.04 82.36,34.12 z"
   id="path20" />
	<path
   style="fill:#01c0fa"
   d="m 173.645,392.734 32.94,-32.95 h 0.01 c 12.65,12.65 30.12,20.47 49.41,20.47 19.3,0 36.78,-7.82 49.42,-20.47 8.83,-8.82 15.31,-19.99 18.41,-32.49 l -21.23,-5.69 22.97,-18.03 38.11,-29.92 7.37,18.35 21.56,53.72 -23.76,-6.37 c -5.25,20.52 -15.96,38.86 -30.48,53.38 -21.08,21.08 -50.2,34.12 -82.37,34.12 -32.16,0 -61.28,-13.04 -82.36,-34.12 z"
   id="path22" />
	<path
   style="fill:none;stroke:#000000;stroke-width:15;stroke-linecap:round;stroke-linejoin:round;stroke-miterlimit:10"
   d="M 158.125,85.156 H 127.03 c -6.456,0 -12.189,-4.131 -14.23,-10.257 L 106.386,55.656 C 102.983,45.447 93.43,38.562 82.669,38.562 H 36.605 c -8.284,0 -15,6.716 -15,15 v 96.21"
   id="path24" />
	<path
   style="fill:none;stroke:#000000;stroke-width:15;stroke-linecap:round;stroke-linejoin:round;stroke-miterlimit:10"
   d="m 490.395,149.773 v -39.616 c 0,-13.807 -11.193,-25 -25,-25 h -272.27"
   id="path26" />
	<path
   style="fill:none;stroke:#000000;stroke-width:15;stroke-linecap:round;stroke-linejoin:round;stroke-miterlimit:10"
   d="M 65.095,473.438 H 45.651 c -13.345,0 -24.337,-10.481 -24.972,-23.811 L 7.529,173.47 C 6.85,159.212 18.227,147.281 32.501,147.281 H 479.5 c 14.274,0 25.651,11.931 24.972,26.189 l -13.15,276.156 c -0.635,13.33 -11.627,23.811 -24.972,23.811 H 100.095"
   id="path28" />
	<path
   style="fill:none;stroke:#000000;stroke-width:15;stroke-linecap:round;stroke-linejoin:round;stroke-miterlimit:10"
   d="m 316.682,210.912 c 7.896,4.829 15.173,10.572 21.683,17.082 l -32.94,32.95 h -0.01 c -12.65,-12.65 -30.12,-20.47 -49.41,-20.47 -19.3,0 -36.78,7.82 -49.42,20.47 -8.83,8.82 -15.31,19.99 -18.41,32.49 l 21.23,5.69 -22.97,18.03 -38.11,29.92 -7.37,-18.35 -21.56,-53.72 23.76,6.37 c 5.25,-20.52 15.96,-38.86 30.48,-53.38 21.08,-21.08 50.2,-34.12 82.37,-34.12 10.161,0 20.019,1.302 29.415,3.747"
   id="path30" />
	<path
   style="fill:none;stroke:#000000;stroke-width:15;stroke-linecap:round;stroke-linejoin:round;stroke-miterlimit:10"
   d="m 173.645,392.734 32.94,-32.95 h 0.01 c 12.65,12.65 30.12,20.47 49.41,20.47 19.3,0 36.78,-7.82 49.42,-20.47 8.83,-8.82 15.31,-19.99 18.41,-32.49 l -21.23,-5.69 22.97,-18.03 38.11,-29.92 7.37,18.35 21.56,53.72 -23.76,-6.37 c -5.25,20.52 -15.96,38.86 -30.48,53.38 -21.08,21.08 -50.2,34.12 -82.37,34.12 -32.16,0 -61.28,-13.04 -82.36,-34.12 z"
   id="path32" />
	
		<polyline
   style="fill:none;stroke:#000000;stroke-width:15;stroke-linecap:round;stroke-linejoin:round;stroke-miterlimit:10"
   points="
		240.469,325.897 256.005,310.364 256,287.062 256,271.531 	"
   id="polyline34" />
	
		<polyline
   style="fill:none;stroke:#000000;stroke-width:15;stroke-linecap:round;stroke-linejoin:round;stroke-miterlimit:10"
   points="
		69.625,147.281 69.625,116.219 442.375,116.219 442.375,147.281 	"
   id="polyline36" />
</g>















</svg>
