<?xml version="1.0" encoding="UTF-8" standalone="no"?>
<!-- Generator: Adobe Illustrator 19.0.0, SVG Export Plug-In . SVG Version: 6.00 Build 0)  -->

<svg
   version="1.1"
   id="Capa_1"
   x="0px"
   y="0px"
   viewBox="0 0 256 256"
   xml:space="preserve"
   sodipodi:docname="logo.svg"
   width="256"
   height="256"
   inkscape:version="1.4.2 (ebf0e940d0, 2025-05-08)"
   xmlns:inkscape="http://www.inkscape.org/namespaces/inkscape"
   xmlns:sodipodi="http://sodipodi.sourceforge.net/DTD/sodipodi-0.dtd"
   xmlns="http://www.w3.org/2000/svg"
   xmlns:svg="http://www.w3.org/2000/svg"><defs
   id="defs32" /><sodipodi:namedview
   id="namedview32"
   pagecolor="#ffffff"
   bordercolor="#000000"
   borderopacity="0.25"
   inkscape:showpageshadow="2"
   inkscape:pageopacity="0.0"
   inkscape:pagecheckerboard="0"
   inkscape:deskcolor="#d1d1d1"
   inkscape:zoom="2.25194"
   inkscape:cx="255.77946"
   inkscape:cy="256.0015"
   inkscape:window-width="3440"
   inkscape:window-height="1371"
   inkscape:window-x="0"
   inkscape:window-y="0"
   inkscape:window-maximized="1"
   inkscape:current-layer="Capa_1" />
<path
   style="fill:#e8faff;stroke-width:0.499997"
   d="M 106.70726,23.828134 C 75.953943,27.663603 31.363702,58.503865 11.00032,94.171592 43.70513,81.067688 120.32368,66.462803 122.80917,66.930799 l 24.86286,-12.337904 c -5e-4,0 3.15998,-36.268719 -40.96477,-30.764761 z"
   id="path1" />
<path
   style="fill:#b2edff;stroke-width:0.499997"
   d="m 255.9294,198.78078 c 0,0 -2.76999,-0.735 -6.58396,-1.37799 C 183.76882,186.34587 88.101372,137.20076 109.03825,91.043108 116.69871,74.155743 138.26308,71.731262 138.26308,71.731262 V 53.9244 H 84.059896 L 37.835164,86.894146 C 49.354597,84.361661 59.18954,84.85866 64.077012,88.033634 75.400446,95.39058 67.74099,111.44196 48.091105,105.757 11.09182,95.052581 2.7973677,135.85326 22.446254,151.23614 l 6.678961,38.15371 118.879305,41.09968 107.99438,-0.021 z"
   id="path2" />
<path
   style="fill:#00c3ff;stroke-width:0.499997"
   d="M 213.04365,198.46078 C 159.95095,181.29241 96.011326,145.27319 91.553352,108.43197 c -2.164987,-17.890351 0,-37.118704 32.304808,-50.6621 l -4.53497,-4.057968 C 94.998332,46.384958 68.627985,52.529411 50.003593,69.865276 L 29.120215,89.302622 c 0.283998,-0.0995 0.555997,-0.21849 0.842995,-0.31149 14.818414,-4.79897 28.140836,-4.83947 34.113802,-0.957998 C 75.400446,95.39008 67.74099,111.44146 48.091105,105.7565 11.09182,95.052081 2.7973677,135.85276 22.446254,151.23564 l 2.912483,16.63588 59.022157,-19.43835 c 7.242958,9.49243 16.677906,18.44435 28.288836,26.5498 0.6945,0.48598 1.49099,0.71698 2.27749,0.71698 1.26449,0 2.50948,-0.59948 3.28598,-1.72048 1.25849,-1.82249 0.81199,-4.32246 -1.001,-5.58796 -17.0984,-11.93441 -29.124328,-25.7993 -35.816789,-40.48768 -0.908495,-1.99349 -0.039,-4.35746 1.881989,-5.39896 1.974489,-1.07049 4.368975,-0.1925 5.346969,1.83498 18.910391,39.1917 83.463511,69.31647 121.947791,81.76188 0.408,0.12948 0.8195,0.19198 1.22549,0.19198 1.68999,0 3.25898,-1.08148 3.80348,-2.78247 0.6775,-2.10749 -0.4775,-4.36846 -2.57748,-5.05046 z"
   id="path3" />
<path
   style="fill:#d1f4ff;stroke-width:0.499997"
   d="m 152.7505,51.416419 c -4.73798,-3.469973 -18.4009,-9.499926 -31.53932,-9.499926 -11.71743,0 -22.36187,2.160983 -31.931815,5.612457 19.561885,2.000484 40.828265,13.550395 50.065705,27.462787 11.19994,16.86787 34.6368,-8.025938 13.40543,-23.575318 z"
   id="path4" />
<path
   style="fill:#00c3ff;stroke-width:0.499997"
   d="m 71.070971,158.59259 c 0,0 47.994719,66.54848 180.835949,67.86398 2.20249,0.022 4.00348,1.80048 4.00348,4.01196 v 0 c 0,2.22748 -1.79849,4.03347 -4.01748,4.03347 H 90.054861 c -18.084895,0 -42.629753,-8.02593 -57.949664,-28.08979 -12.817425,-16.78636 -7.992953,-48.15412 -7.992953,-48.15412 z"
   id="path5" />
<path
   style="fill:#00aaf0;stroke-width:0.499997"
   d="m 252.08992,226.47657 c -21.58638,0 -69.6746,0 -119.9838,0 -32.472815,0 -55.69918,-11.09892 -70.654593,-25.7413 -5.523968,-5.40796 -1.496491,-14.8584 6.218464,-14.8184 l 0.075,5e-4 c 7.375958,0 14.462416,-4.89846 17.791897,-12.55939 -9.907943,-8.59893 -14.377917,-14.76539 -14.377917,-14.76539 l -46.959228,-0.3345 c 0,0 -4.823972,31.36726 7.992954,48.15412 15.320411,20.06436 39.864768,28.08979 57.949663,28.08979 h 161.83906 c 2.21899,0 4.01748,-1.80599 4.01748,-4.03347 0,-2.17798 -1.75249,-3.91796 -3.90898,-3.99196 z"
   id="path6" />
<g
   id="g8"
   transform="matrix(0.4999971,0,0,0.49999613,-1.16024e-4,-0.74867652)">
	<path
   style="fill:#59d8ff"
   d="m 469.791,426.732 c -0.558,0 -1.124,-0.055 -1.69,-0.18 -4.477,-0.964 -9.141,-2.069 -13.968,-3.292 -4.281,-1.082 -6.873,-5.447 -5.796,-9.742 1.077,-4.311 5.445,-6.905 9.707,-5.823 4.641,1.176 9.117,2.234 13.422,3.166 4.313,0.933 7.06,5.196 6.131,9.531 -0.804,3.769 -4.122,6.34 -7.806,6.34 z"
   id="path7" />
	<path
   style="fill:#59d8ff"
   d="m 265.697,374.533 c -1.245,0 -2.506,-0.29 -3.684,-0.909 -3.602,-1.881 -7.134,-3.809 -10.6,-5.769 -3.844,-2.179 -5.199,-7.077 -3.029,-10.934 2.17,-3.864 7.056,-5.228 10.889,-3.049 3.31,1.881 6.686,3.715 10.124,5.518 3.915,2.046 5.437,6.897 3.396,10.824 -1.425,2.752 -4.212,4.319 -7.096,4.319 z"
   id="path8" />
</g>
<g
   id="g10"
   transform="matrix(0.4999971,0,0,0.49999613,-1.16024e-4,-0.74867652)">
	<path
   style="fill:#00aaf0"
   d="m 111.263,215.323 c -4.544,-0.047 -9.545,-0.71 -15.08,-2.311 -73.999,-21.409 -90.588,60.193 -51.29,90.959 l 5.825,33.272 79.619,-26.222 c -3.513,-8.05 -6.922,-16.398 -10.175,-25.108 -9.933,-26.597 -11.899,-50.048 -8.899,-70.59 z"
   id="path9" />
	<path
   style="fill:#00aaf0"
   d="m 191.702,101.321 c -25.529,0 -50.209,9.194 -69.559,25.912 L 62.54,178.729 c 25.87,-7.935 49.065,-8.569 61.842,-3.025 27.286,-50.991 83.704,-74.383 83.704,-74.383 z"
   id="path10" />
</g>
<path
   style="fill:#e8faff;stroke-width:0.499997"
   d="m 16.451788,161.93656 c -5.714966,23.69231 15.652909,44.47565 15.652909,44.47565 0,0 -11.428433,-19.95884 -2.747484,-34.35973 5.744967,-9.53042 17.484899,-11.53691 30.723322,2.25699 10.089441,10.51242 23.931361,-4.36996 17.528898,-15.62838 5.791466,1.07149 11.734432,-1.01699 12.444928,-6.44245 2.608985,-19.90835 -63.278133,-33.10575 -73.602573,9.69792 z"
   id="path11" />
<path
   style="fill:#d1f4ff;stroke-width:0.499997"
   d="m 29.357213,172.05198 c 5.744967,-9.53042 17.484899,-11.53691 30.723322,2.25699 10.089441,10.51242 23.931361,-4.36996 17.528898,-15.62838 -11.866931,-16.14038 -41.757757,-17.97936 -51.999198,-0.423 -10.642938,18.24586 -1.498491,37.45322 6.494462,48.15412 0,5e-4 -11.428433,-19.95834 -2.747484,-34.35973 z"
   id="path12" />
<path
   d="m 208.71667,219.03512 c -2.55198,-0.383 -5.10097,-0.78949 -7.57645,-1.20849 -2.04449,-0.347 -3.97798,1.02999 -4.32348,3.07148 -0.3455,2.04198 1.02949,3.97747 3.07148,4.32296 2.52149,0.427 5.11747,0.8415 7.71596,1.231 0.1885,0.0285 0.376,0.042 0.56099,0.042 1.82499,0 3.42498,-1.3345 3.70398,-3.19398 0.307,-2.04798 -1.10449,-3.95747 -3.15248,-4.26497 z"
   id="path13"
   style="stroke-width:0.499997" />
<path
   d="m 252.73142,194.97681 c -24.64036,-3.19798 -54.87219,-13.0914 -80.87053,-26.4658 -28.33584,-14.57638 -48.92922,-31.58125 -57.98667,-47.88113 -5.91196,-10.63842 -6.75346,-20.765839 -2.50198,-30.100261 2.70848,-5.946458 7.66095,-10.17892 14.72141,-12.579905 3.88148,-1.31999 7.39396,-1.713487 9.16795,-1.831486 0.3295,0.465996 0.65649,0.933993 0.97399,1.40999 3.07648,4.614968 7.45646,7.092443 12.34293,7.092443 1.10999,0 2.24649,-0.128 3.39948,-0.387499 7.27646,-1.638487 13.34942,-8.251432 14.43992,-15.723875 1.13699,-7.79144 -3.15748,-15.036884 -11.78343,-19.877846 -0.955,-0.535995 -1.91799,-1.044491 -2.88349,-1.539488 -0.64549,-3.163475 -3.40998,-13.292897 -13.26642,-20.279343 -9.56994,-6.782947 -22.70787,-8.512433 -39.049274,-5.13646 -22.101371,4.563465 -43.911745,17.519864 -66.676612,39.609693 -1.486492,1.442489 -1.521992,3.816471 -0.08,5.302459 0.735496,0.757994 1.71299,1.138492 2.691484,1.138492 0.940995,0 1.88299,-0.351998 2.610985,-1.058492 C 59.691537,45.601965 80.289418,33.28706 100.9513,29.020593 c 14.16192,-2.924978 25.29735,-1.631987 33.09731,3.84147 4.34697,3.050476 6.93145,6.958447 8.44295,10.172422 -1.4075,-0.512996 -2.81949,-0.982493 -4.23298,-1.40499 -1.98599,-0.595995 -4.07348,0.533996 -4.66697,2.51848 -0.5935,1.984486 0.53449,4.073469 2.51898,4.666964 5.00797,1.496989 10.00495,3.635472 14.85292,6.356451 5.93846,3.332975 8.71645,7.570941 8.03245,12.254905 -0.638,4.370967 -4.44497,8.539935 -8.66645,9.490427 -3.16648,0.712994 -5.80897,-0.479996 -7.85445,-3.548472 -7.02296,-10.534419 -16.73891,-18.972854 -27.35784,-23.760316 -2.56249,-1.155492 -5.14447,-2.085484 -7.73246,-2.794479 4.40497,-0.652495 8.94195,-0.913493 13.57642,-0.656995 2.06849,0.120499 3.83698,-1.468489 3.95198,-3.535973 0.115,-2.067484 -1.46849,-3.837469 -3.53648,-3.951969 C 100.8813,37.525027 78.991925,45.295467 58.085047,61.122344 44.947623,71.067767 36.130674,81.142688 33.41119,84.409661 c -5.394469,1.410987 -11.024436,3.438974 -16.640903,6.103458 3.017482,-3.919972 6.683461,-8.416433 10.945936,-13.1634 1.383492,-1.540988 1.255993,-3.91197 -0.284998,-5.29546 C 25.890234,70.66977 23.519247,70.79777 22.135755,72.338758 8.605834,87.406145 1.020878,99.772541 0.55888073,100.53204 c -0.77049553,1.24849 -0.76499556,2.88947 0.14349916,4.15646 1.20699301,1.68249 3.54997941,2.06849 5.23296961,0.861 C 16.047291,98.295554 28.023221,93.014595 39.657154,90.679119 c 7.293957,-1.464497 17.478398,-2.095986 22.175871,0.943988 3.119982,2.018986 4.314975,4.905461 3.117982,7.532446 -1.613491,3.541977 -7.209458,5.972947 -16.074907,3.417477 -9.112947,-2.625489 -17.2394,-2.610989 -24.15486,0.0445 -6.218964,2.38797 -11.115935,6.82644 -14.160917,12.83689 -3.0299828,5.97996 -3.9669773,13.04441 -2.638485,19.89135 1.197993,6.17495 4.179476,11.67791 8.490451,15.76738 -1.683491,3.05698 -3.025483,6.47995 -3.948977,10.29292 -2.5724855,10.62141 -0.467998,22.31783 6.085964,33.82374 4.849972,8.51493 10.41294,13.94789 10.647438,14.17489 0.728496,0.70549 1.668991,1.05649 2.608485,1.05649 0.979495,0 1.958489,-0.382 2.693985,-1.14049 1.440991,-1.48799 1.403491,-3.86197 -0.084,-5.30246 -0.198499,-0.193 -19.828885,-19.51335 -14.662915,-40.84619 2.510486,-10.36641 8.68845,-17.74736 18.362394,-21.93783 8.100452,-3.50947 18.404893,-4.46696 28.270335,-2.62947 11.820932,2.20247 20.526881,8.13643 19.819885,13.50939 -0.181499,1.38199 -0.691996,2.34399 -1.559991,2.94247 -1.102993,0.761 -2.833983,0.961 -4.629473,0.536 -0.109999,-0.026 -0.219999,-0.045 -0.329498,-0.061 -1.318992,-1.79198 -3.019982,-3.41397 -5.09297,-4.79596 -1.72249,-1.149 -4.051477,-0.6835 -5.19997,1.03999 -1.148994,1.72299 -0.683496,4.05147 1.039994,5.19996 4.665473,3.11047 5.223969,6.82945 4.870971,9.40243 -0.485497,3.53548 -3.030482,6.81745 -6.051464,7.80244 -2.338987,0.762 -4.589974,0.044 -6.689462,-2.13549 -8.307451,-8.62093 -18.559892,-12.37589 -26.754844,-9.79942 -5.431969,1.70749 -9.062447,5.92146 -9.959442,11.56141 -0.325498,2.04548 1.068994,3.96747 3.114482,4.29297 2.041988,0.325 3.967477,-1.069 4.292475,-3.11447 0.563996,-3.54648 2.922483,-4.99496 4.801972,-5.58546 6.538462,-2.05449 14.378416,2.94347 19.105389,7.84843 2.987483,3.09999 6.601462,4.72447 10.31494,4.72447 1.361992,0 2.737984,-0.219 4.100476,-0.663 3.864478,-1.26048 7.139459,-4.17497 9.157947,-7.88393 3.48948,3.71896 9.496945,9.32242 18.812391,15.61587 14.776414,9.98343 41.227764,23.79632 83.329014,32.90724 0.2675,0.058 0.534,0.086 0.797,0.086 1.72749,0 3.28148,-1.20048 3.66148,-2.95747 0.43799,-2.02449 -0.8475,-4.02047 -2.87199,-4.45846 -40.59376,-8.78543 -66.03661,-21.96084 -80.23203,-31.46626 -15.254413,-10.21492 -21.121879,-18.48085 -21.237878,-18.64685 -0.0415,-0.06 -0.0875,-0.115 -0.131499,-0.172 -0.017,-0.3555 -0.046,-0.7085 -0.086,-1.0595 2.265487,-0.15149 4.383475,-0.84249 6.126964,-2.04548 2.638485,-1.81948 4.276976,-4.63347 4.737973,-8.13794 0.689996,-5.24446 -1.960989,-10.38092 -7.464457,-14.46138 -4.608473,-3.41748 -11.148935,-6.04496 -18.416893,-7.39945 -16.567903,-3.08597 -35.726792,0.4525 -47.006727,13.60839 -6.213464,-6.64594 -7.827954,-17.45686 -3.500979,-25.9963 2.336486,-4.61246 9.894942,-14.72838 29.548828,-9.06392 13.160924,3.79146 22.027872,-1.0425 24.976855,-7.51544 2.764984,-6.070962 0.406498,-12.877408 -5.868966,-16.938371 -4.415474,-2.856984 -11.690432,-3.932972 -20.360382,-3.114473 4.180976,-4.293972 10.046442,-9.811929 17.2144,-15.223387 5.28147,-3.986969 11.714932,-8.227936 18.99089,-11.844408 0.022,-0.008 0.0445,-0.0135 0.0665,-0.022 9.613944,-3.712472 20.062381,-3.255475 30.215821,1.32299 6.40797,2.888977 12.45893,7.313943 17.6454,12.829901 -7.57646,1.403988 -19.41889,5.598456 -25.13435,18.146363 -5.291973,11.619408 -4.35948,24.018315 2.77148,36.851705 20.96188,37.72321 92.94996,71.45846 144.44766,78.1409 0.164,0.0215 0.3265,0.0315 0.4875,0.0315 1.85599,0 3.46898,-1.378 3.71398,-3.26797 0.2655,-2.05149 -1.1835,-3.93247 -3.23698,-4.19897 z"
   id="path14"
   style="stroke-width:0.499997" />
<path
   d="m 88.733368,114.00393 c -1.968988,0.6425 -3.043482,2.75998 -2.400486,4.72846 0.525497,1.60949 1.124994,3.25098 1.78249,4.87997 0.589497,1.46099 1.994488,2.34748 3.47898,2.34748 0.467497,0 0.942494,-0.088 1.402492,-0.2735 1.920489,-0.77549 2.848983,-2.96047 2.073988,-4.88096 -0.593997,-1.47199 -1.135494,-2.95297 -1.608491,-4.40146 -0.642996,-1.96849 -2.760984,-3.04398 -4.728973,-2.39999 z"
   id="path15"
   style="stroke-width:0.499997" />
<path
   d="m 106.05827,68.530787 c 1.70899,-1.159991 2.15799,-3.485973 1.00149,-5.19896 -1.15799,-1.716987 -3.48948,-2.169483 -5.20597,-1.010992 -0.82649,0.557496 -20.22188,13.968392 -18.54889,41.074175 0.122999,1.98899 1.77349,3.51898 3.739478,3.51898 0.078,0 0.155999,-0.002 0.234499,-0.008 2.066988,-0.1275 3.639479,-1.90649 3.51198,-3.97347 C 89.389365,80.234199 105.35827,69.009783 106.05827,68.530287 Z"
   id="path16"
   style="stroke-width:0.499997" />
<path
   d="m 86.244883,212.83067 c -2.295987,-1.0685 -4.561474,-2.22198 -6.732961,-3.42897 -1.809989,-1.006 -4.093476,-0.3535 -5.09947,1.45599 -1.005994,1.81048 -0.353998,4.09396 1.456491,5.09946 2.327487,1.29348 4.753473,2.52947 7.210958,3.67347 0.511997,0.2385 1.050494,0.35099 1.579991,0.35099 1.412992,0 2.766484,-0.80249 3.40198,-2.16848 0.874495,-1.87748 0.061,-4.10847 -1.816989,-4.98246 z"
   id="path17"
   style="stroke-width:0.499997" />
<path
   d="M 66.483998,200.75877 C 53.671572,190.66735 48.450102,181.00841 48.398603,180.91241 c -0.964995,-1.82748 -3.227481,-2.52997 -5.058971,-1.56898 -1.833489,0.963 -2.539985,3.22997 -1.576991,5.06346 0.234999,0.448 5.916966,11.08892 20.080884,22.24332 0.687496,0.542 1.505491,0.804 2.317986,0.804 1.109494,0 2.208487,-0.49 2.948483,-1.42948 1.281493,-1.62699 1.000994,-3.98498 -0.625996,-5.26596 z"
   id="path18"
   style="stroke-width:0.499997" />
<g
   id="g18"
   transform="matrix(0.4999971,0,0,0.49999613,-1.16024e-4,-0.74867652)">
</g>
<g
   id="g19"
   transform="matrix(0.4999971,0,0,0.49999613,-1.16024e-4,-0.74867652)">
</g>
<g
   id="g20"
   transform="matrix(0.4999971,0,0,0.49999613,-1.16024e-4,-0.74867652)">
</g>
<g
   id="g21"
   transform="matrix(0.4999971,0,0,0.49999613,-1.16024e-4,-0.74867652)">
</g>
<g
   id="g22"
   transform="matrix(0.4999971,0,0,0.49999613,-1.16024e-4,-0.74867652)">
</g>
<g
   id="g23"
   transform="matrix(0.4999971,0,0,0.49999613,-1.16024e-4,-0.74867652)">
</g>
<g
   id="g24"
   transform="matrix(0.4999971,0,0,0.49999613,-1.16024e-4,-0.74867652)">
</g>
<g
   id="g25"
   transform="matrix(0.4999971,0,0,0.49999613,-1.16024e-4,-0.74867652)">
</g>
<g
   id="g26"
   transform="matrix(0.4999971,0,0,0.49999613,-1.16024e-4,-0.74867652)">
</g>
<g
   id="g27"
   transform="matrix(0.4999971,0,0,0.49999613,-1.16024e-4,-0.74867652)">
</g>
<g
   id="g28"
   transform="matrix(0.4999971,0,0,0.49999613,-1.16024e-4,-0.74867652)">
</g>
<g
   id="g29"
   transform="matrix(0.4999971,0,0,0.49999613,-1.16024e-4,-0.74867652)">
</g>
<g
   id="g30"
   transform="matrix(0.4999971,0,0,0.49999613,-1.16024e-4,-0.74867652)">
</g>
<g
   id="g31"
   transform="matrix(0.4999971,0,0,0.49999613,-1.16024e-4,-0.74867652)">
</g>
<g
   id="g32"
   transform="matrix(0.4999971,0,0,0.49999613,-1.16024e-4,-0.74867652)">
</g>
</svg>
